<svg enable-background="new 0 0 448 447.8" viewBox="0 0 448 447.8" xmlns="http://www.w3.org/2000/svg"><circle cx="224" cy="223.9" fill="#0e0e0e" r="216.8"/><path d="m224 163.2c-33.6 0-60.8 27.1-60.8 60.8s27.1 60.8 60.8 60.8 60.8-27.1 60.8-60.8-27.1-60.8-60.8-60.8zm0 100.2c-21.7 0-39.5-17.7-39.5-39.5s17.7-39.5 39.5-39.5 39.5 17.7 39.5 39.5-17.7 39.5-39.5 39.5zm77.4-102.7c0 7.9-6.3 14.2-14.2 14.2s-14.2-6.3-14.2-14.2c0-7.8 6.3-14.2 14.2-14.2s14.2 6.4 14.2 14.2zm40.3 14.4c-.9-19-5.2-35.8-19.1-49.6-13.9-13.9-30.7-18.2-49.6-19.1-19.6-1.1-78.2-1.1-97.8 0-18.9.9-35.7 5.2-49.6 19.1s-18.3 30.5-19.3 49.5c-1.1 19.6-1.1 78.2 0 97.8.9 19 5.2 35.8 19.1 49.6 13.9 13.9 30.7 18.2 49.6 19.1 19.6 1.1 78.2 1.1 97.8 0 19-.9 35.8-5.2 49.6-19.1 13.9-13.9 18.2-30.7 19.1-49.6 1.3-19.6 1.3-78.2.2-97.7zm-25.3 118.7c-4.1 10.4-12.1 18.3-22.5 22.5-15.6 6.2-52.6 4.8-69.8 4.8s-54.3 1.4-69.8-4.8c-10.4-4.1-18.3-12.1-22.5-22.5-6.2-15.6-4.8-52.6-4.8-69.8s-1.4-54.3 4.8-69.8c4.1-10.4 12.1-18.3 22.5-22.5 15.6-6.2 52.6-4.8 69.8-4.8s54.3-1.4 69.8 4.8c10.4 4.1 18.3 12.1 22.5 22.5 6.2 15.6 4.8 52.6 4.8 69.8s1.4 54.2-4.8 69.8z" fill="#fff"/></svg>