<svg clip-rule="evenodd" fill-rule="evenodd" viewBox="0 0 86 86" xmlns="http://www.w3.org/2000/svg"><path d="m42.75 0c23.6 0 42.8 19.14 42.8 42.74 0 23.62-19.2 42.76-42.8 42.76s-42.6-19.14-42.6-42.76c0-23.6 19-42.74 42.6-42.74z" fill="#0f0f0f"/><path d="m63.15 30.5c-1.6.64-3.2 1.1-4.8 1.28 1.8-1.02 3-2.64 3.6-4.54-1.6.94-3.4 1.64-5.2 1.98-1.4-1.6-3.6-2.6-6-2.6-4.6 0-8.2 3.7-8.2 8.22 0 .64 0 1.28.2 1.9-6.8-.36-12.8-3.62-17-8.6-.6 1.22-1 2.62-1 4.14 0 2.84 1.4 5.36 3.6 6.84-1.4-.04-2.6-.44-3.8-1.04v.1c0 4 3 7.3 6.6 8.06-.6.18-1.4.28-2 .28s-1.2-.04-1.6-.12c1 3.26 4 5.62 7.6 5.7-2.8 2.22-6.4 3.5-10.2 3.5-.6 0-1.2-.02-2-.1 3.8 2.34 8 3.7 12.6 3.7 15.2 0 23.4-12.52 23.4-23.38 0-.36 0-.72 0-1.08 1.6-1.16 3-2.62 4.2-4.24z" fill="#fff"/></svg>