<?xml version="1.0" encoding="utf-8"?>
<!-- Generator: Adobe Illustrator 21.1.0, SVG Export Plug-In . SVG Version: 6.00 Build 0)  -->
<svg version="1.1" id="Layer_1" xmlns="http://www.w3.org/2000/svg" xmlns:xlink="http://www.w3.org/1999/xlink" x="0px" y="0px"
	 width="580.7px" height="63.8px" viewBox="0 0 580.7 63.8" style="enable-background:new 0 0 580.7 63.8;" xml:space="preserve">
<style type="text/css">
	.st0{fill:#0061FF;}
	.st1{display:none;}
	.st2{display:inline;}
	.st3{fill:none;}
</style>
<path class="st0" d="M37.6,12L18.8,24l18.8,12L18.8,48L0,35.9l18.8-12L0,12L18.8,0L37.6,12z M18.7,51.8l18.8-12l18.8,12l-18.8,12
	L18.7,51.8z M37.6,35.9l18.8-12L37.6,12L56.3,0l18.8,12L56.3,24l18.8,12L56.3,48L37.6,35.9z"/>
<path d="M89.8,12H105c9.7,0,17.7,5.6,17.7,18.4v2.7c0,12.9-7.5,18.7-17.4,18.7H89.8V12z M98.3,19.2v25.3h6.5c5.5,0,9.2-3.6,9.2-11.6
	v-2.1c0-8-3.9-11.6-9.5-11.6H98.3z M127.2,19.6h6.8l1.1,7.5c1.3-5.1,4.6-7.8,10.6-7.8h2.1v8.6h-3.5c-6.9,0-8.6,2.4-8.6,9.2v14.8
	h-8.4V19.6H127.2z M149.5,36.4v-0.9c0-10.8,6.9-16.7,16.3-16.7c9.6,0,16.3,5.9,16.3,16.7v0.9c0,10.6-6.5,16.3-16.3,16.3
	C155.4,52.6,149.5,47,149.5,36.4z M173.5,36.3v-0.8c0-6-3-9.6-7.8-9.6c-4.7,0-7.8,3.3-7.8,9.6v0.8c0,5.8,3,9.1,7.8,9.1
	C170.5,45.3,173.5,42.1,173.5,36.3z M186.5,19.6h7l0.8,6.1c1.7-4.1,5.3-6.9,10.6-6.9c8.2,0,13.6,5.9,13.6,16.8v0.9
	c0,10.6-6,16.2-13.6,16.2c-5.1,0-8.6-2.3-10.3-6V63h-8.2L186.5,19.6L186.5,19.6z M210,36.3v-0.7c0-6.4-3.3-9.6-7.7-9.6
	c-4.7,0-7.8,3.6-7.8,9.6v0.6c0,5.7,3,9.3,7.7,9.3C207,45.4,210,42.3,210,36.3z M230.9,45.9l-0.7,5.9h-7.3v-43h8.2v16.5
	c1.8-4.2,5.4-6.5,10.5-6.5c7.7,0.1,13.4,5.4,13.4,16.1v1c0,10.7-5.4,16.8-13.6,16.8C236.1,52.6,232.6,50.1,230.9,45.9z M246.5,35.9
	v-0.8c0-5.9-3.2-9.2-7.7-9.2c-4.6,0-7.8,3.7-7.8,9.3v0.7c0,6,3.1,9.5,7.7,9.5C243.6,45.4,246.5,42.3,246.5,35.9z M258.7,36.4v-0.9
	c0-10.8,6.9-16.7,16.3-16.7c9.6,0,16.3,5.9,16.3,16.7v0.9c0,10.6-6.6,16.3-16.3,16.3C264.6,52.6,258.7,47,258.7,36.4z M282.8,36.3
	v-0.8c0-6-3-9.6-7.8-9.6c-4.7,0-7.8,3.3-7.8,9.6v0.8c0,5.8,3,9.1,7.8,9.1C279.8,45.3,282.8,42.1,282.8,36.3z M302.3,35.1L291,19.6
	h9.7l6.5,9.7l6.6-9.7h9.6L311.9,35L324,51.8h-9.5l-7.4-10.7l-7.2,10.7H290L302.3,35.1z"/>
<path class="st0" d="M337.2,12h15c10.3,0,14.6,3.7,14.6,10.2c0,4.9-2.2,7.7-6.5,9.1c4.6,1.2,7.3,4.2,7.3,9.4c0,7.2-4.7,11.1-15,11.1
	h-15.4V12z M342.5,16.5v12.7h10c5.8,0.1,9-2,9-6.5c0-4.1-2.6-6.2-9.1-6.2H342.5z M342.5,33.7v13.4h9.6c7.2,0,10.1-2.3,10.1-6.8
	c0-4.6-3.4-6.6-9.9-6.6H342.5z M372.5,39.2V19.6h5.5v18.3c0,5.8,2,9.8,7.9,9.8c5.8,0,9.1-4.1,9.1-10.8V19.6h5.5v32.2h-4.6l-0.6-6.9
	c-1.7,4.6-5.4,7.6-11.1,7.6C376.3,52.5,372.5,47.3,372.5,39.2z M404.5,41.4h5.9c0.7,4.6,4.4,6.7,9.4,6.7c5.9,0,8.1-2.5,8.1-5.5
	c0-3.7-4.6-4.3-9.7-5c-5.9-0.8-12.3-2-12.3-8.9c0-5.3,4-9.8,12.7-9.8c8.8,0,13.1,4.1,14,10.3H427c-0.5-3.7-3.4-5.9-8.4-5.9
	c-5.4,0-7.3,2.5-7.3,5.1c0,3.7,4.7,4.2,9.7,4.9c5.9,0.8,12.2,2,12.2,8.9c0,5.8-4.2,10.5-13.6,10.5C410.6,52.6,405.4,48.7,404.5,41.4
	z M437.2,12c0-2.8,1.3-3.9,3.9-3.9c2.5,0,3.8,1.1,3.8,3.9c0,2.7-1.3,3.9-3.8,3.9C438.3,15.8,437.2,14.8,437.2,12z M438.2,19.6h5.4
	v32.2h-5.4V19.6z M450.4,19.6h4.6l0.5,7.4c1.7-4.9,5.7-8.2,11.7-8.2c8.2,0,12.5,5.4,12.5,13.4v19.6h-5.5V33.5c0-5.9-2.4-9.9-8.6-9.9
	c-6.3,0-9.7,4.6-9.7,11.3v16.9h-5.5V19.6z M485,36.3v-0.7c0-10.1,6.1-16.8,16.1-16.8c10.7,0,15.4,7.5,15.4,16.2v2.6h-26.3
	c0.4,6.6,4.5,10.5,11,10.5c4.6,0,7.8-2,9.1-5.7h5.9c-1.8,6.6-7.3,10.3-15.1,10.3C490.3,52.6,485,46.2,485,36.3z M490.3,33.3h20.8
	c-0.4-6-3.9-9.9-9.9-9.9C495,23.3,491,27.1,490.3,33.3z M519.8,41.4h5.9c0.7,4.6,4.4,6.7,9.4,6.7c5.9,0,8.1-2.5,8.1-5.5
	c0-3.7-4.6-4.3-9.7-5c-5.9-0.8-12.3-2-12.3-8.9c0-5.3,4-9.8,12.7-9.8c8.8,0,13.1,4.1,14,10.3h-5.6c-0.5-3.7-3.4-5.9-8.4-5.9
	c-5.4,0-7.3,2.5-7.3,5.1c0,3.7,4.7,4.2,9.7,4.9c5.9,0.8,12.2,2,12.2,8.9c0,5.8-4.2,10.5-13.6,10.5C526,52.6,520.7,48.7,519.8,41.4z
	 M551.9,41.4h5.9c0.7,4.6,4.4,6.7,9.4,6.7c5.9,0,8.1-2.5,8.1-5.5c0-3.7-4.6-4.3-9.7-5c-5.9-0.8-12.3-2-12.3-8.9
	c0-5.3,4-9.8,12.7-9.8c8.8,0,13.1,4.1,14,10.3h-5.6c-0.5-3.7-3.4-5.9-8.4-5.9c-5.4,0-7.3,2.5-7.3,5.1c0,3.7,4.7,4.2,9.7,4.9
	c5.9,0.8,12.2,2,12.2,8.9c0,5.8-4.2,10.5-13.6,10.5C558.1,52.6,552.8,48.7,551.9,41.4z"/>
<g id="Editble" class="st1">
	<g class="st2">
		<rect x="-46" y="4.4" class="st3" width="672.6" height="71.8"/>
		<path d="M3.2,13L-17,25.8L3.2,38.7L-17,51.5l-20.2-12.8L-17,25.8L-37.1,13L-17,0.2L3.2,13z M-17,55.8L3.1,42.9l20.2,12.8L3.1,68.6
			L-17,55.8z M3.2,38.7l20.2-12.8L3.2,13L23.3,0.2L43.5,13L23.3,25.8l20.2,12.8L23.3,51.5L3.2,38.7z"/>
		<path d="M59.3,13h16.3c10.4,0,19,6.1,19,19.8v2.9c0,13.8-8,20-18.7,20H59.3V13z M68.4,20.7v27.2h7c5.9,0,9.9-3.9,9.9-12.5v-2.2
			c0-8.6-4.1-12.5-10.2-12.5H68.4z M99.4,21.2h7.3l1.1,8c1.4-5.5,4.9-8.3,11.3-8.3h2.2V30h-3.7c-7.4,0-9.2,2.6-9.2,9.9v15.8h-9
			C99.4,55.7,99.4,21.2,99.4,21.2z M123.3,39.2v-1c0-11.6,7.4-17.9,17.5-17.9c10.3,0,17.5,6.4,17.5,17.9v1c0,11.4-7,17.5-17.5,17.5
			C129.7,56.7,123.3,50.6,123.3,39.2z M149.2,39.1v-0.8c0-6.5-3.2-10.3-8.3-10.3c-5,0-8.4,3.5-8.4,10.3v0.8c0,6.2,3.2,9.7,8.3,9.7
			C145.9,48.8,149.2,45.4,149.2,39.1z M163,21.2h7.6l0.9,6.6c1.9-4.4,5.7-7.4,11.4-7.4c8.8,0,14.6,6.4,14.6,18v1
			c0,11.4-6.4,17.3-14.6,17.3c-5.5,0-9.2-2.5-11-6.5v17.5H163V21.2z M188.3,39.2v-0.8c0-6.9-3.5-10.3-8.3-10.3
			c-5,0-8.4,3.8-8.4,10.3V39c0,6.1,3.2,10,8.2,10C185,48.9,188.3,45.5,188.3,39.2z M210.7,49.5l-0.7,6.3h-7.8V9.6h8.8v17.8
			c1.9-4.5,5.8-7,11.2-7c8.2,0.1,14.3,5.8,14.3,17.3v1c0,11.5-5.8,18-14.6,18C216.3,56.7,212.6,53.9,210.7,49.5z M227.5,38.7v-0.8
			c0-6.4-3.5-9.8-8.3-9.8c-5,0-8.4,4-8.4,10v0.7c0,6.5,3.3,10.2,8.3,10.2C224.3,48.9,227.5,45.5,227.5,38.7z M240.6,39.2v-1
			c0-11.6,7.4-17.9,17.5-17.9c10.3,0,17.5,6.4,17.5,17.9v1c0,11.4-7.1,17.5-17.5,17.5C246.9,56.7,240.6,50.6,240.6,39.2z
			 M266.5,39.1v-0.8c0-6.5-3.2-10.3-8.3-10.3c-5,0-8.4,3.5-8.4,10.3v0.8c0,6.2,3.2,9.7,8.3,9.7C263.3,48.8,266.5,45.4,266.5,39.1z
			 M287.3,37.8l-12.1-16.7h10.4l7,10.4l7.1-10.4H310l-12.3,16.6l13,18h-10.2l-8-11.5l-7.7,11.5h-10.6L287.3,37.8z"/>
		<path d="M324.8,13H341c11,0,15.7,4,15.7,11c0,5.3-2.4,8.3-7,9.8c5,1.3,7.8,4.6,7.8,10.1c0,7.7-5,11.9-16.1,11.9h-16.6V13z
			 M330.5,17.9v13.7h10.7c6.2,0.1,9.7-2.1,9.7-7c0-4.4-2.8-6.7-9.7-6.7C341.2,17.9,330.5,17.9,330.5,17.9z M330.5,36.3v14.4h10.3
			c7.7,0,10.8-2.5,10.8-7.3c0-5-3.6-7.1-10.7-7.1H330.5z M362.8,42.3V21.2h5.9v19.7c0,6.2,2.2,10.5,8.5,10.5c6.2,0,9.7-4.4,9.7-11.6
			V21.2h5.9v34.6h-4.9l-0.6-7.4c-1.8,4.9-5.8,8.2-11.9,8.2C366.8,56.6,362.8,51,362.8,42.3z M397.1,44.6h6.3
			c0.7,4.9,4.7,7.1,10.1,7.1c6.3,0,8.7-2.6,8.7-5.9c0-4-5-4.6-10.4-5.4c-6.3-0.9-13.2-2.1-13.2-9.5c0-5.6,4.3-10.5,13.6-10.5
			c9.4,0,14.1,4.4,15,11h-6c-0.5-4-3.7-6.4-9.1-6.4c-5.8,0-7.8,2.7-7.8,5.5c0,4,5,4.5,10.4,5.3c6.3,0.9,13.1,2.2,13.1,9.6
			c0,6.2-4.6,11.2-14.6,11.2C403.7,56.7,398,52.5,397.1,44.6z M432.2,13c0-3,1.4-4.1,4.1-4.1s4.1,1.1,4.1,4.1c0,2.9-1.4,4.1-4.1,4.1
			C433.4,17.1,432.2,16.1,432.2,13z M433.3,21.2h5.8v34.6h-5.8V21.2z M446.3,21.2h4.9l0.5,8c1.9-5.2,6.1-8.8,12.6-8.8
			c8.8,0,13.4,5.8,13.4,14.4v21h-5.9V36.1c0-6.4-2.6-10.6-9.2-10.6c-6.7,0-10.4,4.9-10.4,12.2v18.1h-5.9V21.2z M483.5,39.2v-0.7
			c0-10.9,6.6-18.1,17.3-18.1c11.5,0,16.6,8.1,16.6,17.3v2.8h-28.3c0.4,7.1,4.8,11.2,11.8,11.2c5,0,8.4-2.1,9.7-6.1h6.3
			c-2,7.1-7.8,11.1-16.3,11.1C489.2,56.7,483.5,49.8,483.5,39.2z M489.2,35.9h22.3c-0.5-6.5-4.1-10.7-10.7-10.7
			C494.2,25.2,490,29.2,489.2,35.9z M520.9,44.6h6.3c0.7,4.9,4.7,7.1,10.1,7.1c6.3,0,8.7-2.6,8.7-5.9c0-4-5-4.6-10.4-5.4
			c-6.3-0.9-13.2-2.1-13.2-9.5c0-5.6,4.3-10.5,13.6-10.5c9.4,0,14.1,4.4,15,11h-6c-0.5-4-3.7-6.4-9.1-6.4c-5.8,0-7.8,2.7-7.8,5.5
			c0,4,5,4.5,10.4,5.3c6.3,0.9,13.1,2.2,13.1,9.6c0,6.2-4.6,11.2-14.6,11.2C527.5,56.7,521.9,52.5,520.9,44.6z M555.4,44.6h6.3
			c0.7,4.9,4.7,7.1,10.1,7.1c6.3,0,8.7-2.6,8.7-5.9c0-4-5-4.6-10.4-5.4c-6.3-0.9-13.2-2.1-13.2-9.5c0-5.6,4.3-10.5,13.6-10.5
			c9.4,0,14.1,4.4,15,11h-6c-0.5-4-3.7-6.4-9.1-6.4c-5.8,0-7.8,2.7-7.8,5.5c0,4,5,4.5,10.4,5.3c6.3,0.9,13.1,2.2,13.1,9.6
			c0,6.2-4.6,11.2-14.6,11.2C562,56.7,556.3,52.5,555.4,44.6z"/>
	</g>
</g>
</svg>
