<?xml version="1.0" encoding="utf-8"?>
<!-- Generator: Adobe Illustrator 21.1.0, SVG Export Plug-In . SVG Version: 6.00 Build 0)  -->
<svg version="1.1" id="Layer_1" xmlns="http://www.w3.org/2000/svg" xmlns:xlink="http://www.w3.org/1999/xlink" x="0px" y="0px"
	 width="497.7px" height="63.8px" viewBox="0 0 497.7 63.8" style="enable-background:new 0 0 497.7 63.8;" xml:space="preserve">
<style type="text/css">
	.st0{fill:#0061FF;}
	.st1{display:none;}
	.st2{display:inline;}
	.st3{fill:none;}
</style>
<path class="st0" d="M37.6,12L18.8,24l18.8,12L18.8,48L0,35.9l18.8-12L0,12L18.8,0L37.6,12z M18.7,51.8l18.8-12l18.8,12l-18.8,12
	L18.7,51.8z M37.6,35.9l18.8-12L37.6,12L56.3,0l18.8,12L56.3,24l18.8,12L56.3,48L37.6,35.9z"/>
<path d="M89.8,12H105c9.7,0,17.7,5.6,17.7,18.4v2.7c0,12.9-7.5,18.7-17.4,18.7H89.8V12z M98.3,19.2v25.3h6.5c5.5,0,9.2-3.6,9.2-11.6
	v-2.1c0-8-3.9-11.6-9.5-11.6H98.3z M127.2,19.6h6.8l1.1,7.5c1.3-5.1,4.6-7.8,10.6-7.8h2.1v8.6h-3.5c-6.9,0-8.6,2.4-8.6,9.2v14.8
	h-8.4V19.6H127.2z M149.5,36.4v-0.9c0-10.8,6.9-16.7,16.3-16.7c9.6,0,16.3,5.9,16.3,16.7v0.9c0,10.6-6.5,16.3-16.3,16.3
	C155.4,52.6,149.5,47,149.5,36.4z M173.5,36.3v-0.8c0-6-3-9.6-7.8-9.6c-4.7,0-7.8,3.3-7.8,9.6v0.8c0,5.8,3,9.1,7.8,9.1
	C170.5,45.3,173.5,42.1,173.5,36.3z M186.5,19.6h7l0.8,6.1c1.7-4.1,5.3-6.9,10.6-6.9c8.2,0,13.6,5.9,13.6,16.8v0.9
	c0,10.6-6,16.2-13.6,16.2c-5.1,0-8.6-2.3-10.3-6V63h-8.2L186.5,19.6L186.5,19.6z M210,36.3v-0.7c0-6.4-3.3-9.6-7.7-9.6
	c-4.7,0-7.8,3.6-7.8,9.6v0.6c0,5.7,3,9.3,7.7,9.3C207,45.4,210,42.3,210,36.3z M230.9,45.9l-0.7,5.9h-7.3v-43h8.2v16.5
	c1.8-4.2,5.4-6.5,10.5-6.5c7.7,0.1,13.4,5.4,13.4,16.1v1c0,10.7-5.4,16.8-13.6,16.8C236.1,52.6,232.6,50.1,230.9,45.9z M246.5,35.9
	v-0.8c0-5.9-3.2-9.2-7.7-9.2c-4.6,0-7.8,3.7-7.8,9.3v0.7c0,6,3.1,9.5,7.7,9.5C243.6,45.4,246.5,42.3,246.5,35.9z M258.7,36.4v-0.9
	c0-10.8,6.9-16.7,16.3-16.7c9.6,0,16.3,5.9,16.3,16.7v0.9c0,10.6-6.6,16.3-16.3,16.3C264.6,52.6,258.7,47,258.7,36.4z M282.8,36.3
	v-0.8c0-6-3-9.6-7.8-9.6c-4.7,0-7.8,3.3-7.8,9.6v0.8c0,5.8,3,9.1,7.8,9.1C279.8,45.3,282.8,42.1,282.8,36.3z M302.3,35.1L291,19.6
	h9.7l6.5,9.7l6.6-9.7h9.6L311.9,35L324,51.8h-9.5l-7.4-10.7l-7.2,10.7H290L302.3,35.1z"/>
<path class="st0" d="M337.2,12h14.6c10.5,0,15.4,5.4,15.4,13.2c0,8.2-4.9,13.5-15.1,13.4h-9.6v13.2h-5.4V12H337.2z M342.6,16.7v17.2
	h9.5c6.2,0,9.7-3.1,9.7-8.7c0-5-3.2-8.5-10-8.5H342.6z M370.4,44.2c0-3.4,1.6-6,4.1-7.6c2.6-1.6,5.1-2.3,11.5-3.2
	c5.6-0.8,8.7-1.3,8.7-4.2c0-3.3-2.1-5.9-8.3-5.9c-6.3,0-9.4,3.1-9.7,7.7h-5.4c0.5-6.9,5.7-12,14.9-12c9.7,0,13.6,3.9,13.6,11.5V52
	h-4.3l-0.7-7.9c-2.2,4.9-7.2,8.8-14.2,8.8C373.9,52.6,370.4,49.3,370.4,44.2z M394.8,36.7v-2.3c-1.5,1.2-4.1,1.9-7.6,2.4
	c-4.9,0.8-6.9,1.3-8.8,2.5c-1.6,1-2.5,2.4-2.5,4.3c0,3,2,4.8,6.4,4.8C389.6,48.3,394.8,42.1,394.8,36.7z M406.3,19.6h4.5l0.6,7.4
	c1.8-4.8,5.9-8.2,12-8.2c8.6,0,14.2,6.2,14.2,16.8v0.7c0,10.3-5.8,16.3-14.4,16.3c-5.8,0-9.7-3-11.6-7.5v17.7h-5.3L406.3,19.6
	L406.3,19.6z M432,36.2v-0.6c0-7.6-4.2-12.1-10.2-12.1c-6.4,0-10.5,5-10.5,12v0.4c0,7,3.9,12.1,10.3,12.1
	C428.2,48,432,43.4,432,36.2z M442.5,36.3v-0.7c0-10.1,6.1-16.8,16.1-16.8c10.7,0,15.4,7.5,15.4,16.2v2.6h-26.3
	c0.4,6.6,4.5,10.5,11,10.5c4.6,0,7.8-2,9.1-5.7h5.9c-1.8,6.6-7.3,10.3-15.1,10.3C447.7,52.6,442.5,46.2,442.5,36.3z M447.8,33.3
	h20.8c-0.4-6-3.9-9.9-9.9-9.9C452.4,23.3,448.5,27.1,447.8,33.3z M479.1,19.6h4.4l0.7,8.1c1.4-5.3,5-8.1,11.6-8.1h2V25H495
	c-8.2,0-10.6,3.6-10.6,11.7v15h-5.3V19.6z"/>
<g id="Editble" class="st1">
	<g class="st2">
		<rect x="-87.4" y="5" class="st3" width="672.6" height="71.8"/>
		<path d="M-38.3,13.6l-20.2,12.8l20.2,12.8L-58.5,52l-20.2-12.8l20.2-12.8l-20.2-12.8l20.2-12.8L-38.3,13.6z M-58.5,56.4l20.2-12.8
			l20.2,12.8l-20.2,12.8L-58.5,56.4z M-38.3,39.3l20.2-12.8l-20.2-12.8l20.2-12.8L2,13.6l-20.2,12.8L2,39.3l-20.2,12.8L-38.3,39.3z"
			/>
		<path d="M17.8,13.6h16.3c10.4,0,19,6.1,19,19.8v2.9c0,13.8-8,20-18.7,20H17.8V13.6z M26.9,21.3v27.2h7c5.9,0,9.9-3.9,9.9-12.5
			v-2.2c0-8.6-4.1-12.5-10.2-12.5H26.9z M57.9,21.8h7.3l1.1,8c1.4-5.5,4.9-8.3,11.3-8.3h2.2v9.2h-3.7c-7.4,0-9.2,2.6-9.2,9.9v15.8
			h-9C57.9,56.4,57.9,21.8,57.9,21.8z M81.8,39.8v-1c0-11.6,7.4-17.9,17.5-17.9c10.3,0,17.5,6.4,17.5,17.9v1
			c0,11.4-7,17.5-17.5,17.5C88.2,57.3,81.8,51.2,81.8,39.8z M107.7,39.7v-0.8c0-6.5-3.2-10.3-8.3-10.3c-5,0-8.4,3.5-8.4,10.3v0.8
			c0,6.2,3.2,9.7,8.3,9.7S107.7,46,107.7,39.7z M121.5,21.8h7.6l0.9,6.6c1.9-4.4,5.7-7.4,11.4-7.4c8.8,0,14.6,6.4,14.6,18v1
			c0,11.4-6.4,17.3-14.6,17.3c-5.5,0-9.2-2.5-11-6.5v17.5h-8.8L121.5,21.8L121.5,21.8z M146.9,39.8V39c0-6.9-3.5-10.3-8.3-10.3
			c-5,0-8.4,3.8-8.4,10.3v0.7c0,6.1,3.2,10,8.2,10C143.6,49.5,146.9,46.1,146.9,39.8z M169.2,50.1l-0.7,6.3h-7.8V10.2h8.8V28
			c1.9-4.5,5.8-7,11.2-7c8.2,0.1,14.3,5.8,14.3,17.3v1c0,11.5-5.8,18-14.6,18C174.8,57.3,171.1,54.5,169.2,50.1z M186,39.3v-0.8
			c0-6.4-3.5-9.8-8.3-9.8c-5,0-8.4,4-8.4,10v0.7c0,6.5,3.3,10.2,8.3,10.2C182.9,49.5,186,46.1,186,39.3z M199.1,39.8v-1
			c0-11.6,7.4-17.9,17.5-17.9c10.3,0,17.5,6.4,17.5,17.9v1c0,11.4-7.1,17.5-17.5,17.5C205.4,57.3,199.1,51.2,199.1,39.8z M225,39.7
			v-0.8c0-6.5-3.2-10.3-8.3-10.3c-5,0-8.4,3.5-8.4,10.3v0.8c0,6.2,3.2,9.7,8.3,9.7C221.8,49.4,225,46,225,39.7z M245.9,38.4
			l-12.1-16.7h10.4l7,10.4l7.1-10.4h10.3l-12.3,16.6l13,18H259l-8-11.5l-7.7,11.5h-10.6L245.9,38.4z"/>
		<path d="M283.4,13.6H299c11.2,0,16.6,5.8,16.6,14.2c0,8.8-5.3,14.5-16.2,14.4h-10.3v14.2h-5.8L283.4,13.6L283.4,13.6z M289.1,18.7
			v18.5h10.2c6.7,0,10.4-3.3,10.4-9.4c0-5.4-3.5-9.1-10.7-9.1H289.1z M319,48.2c0-3.6,1.7-6.5,4.4-8.2c2.8-1.7,5.5-2.5,12.4-3.5
			c6-0.8,9.4-1.4,9.4-4.6c0-3.5-2.3-6.4-8.9-6.4c-6.8,0-10.1,3.3-10.4,8.3H320c0.5-7.4,6.1-12.9,16-12.9c10.4,0,14.6,4.1,14.6,12.3
			v23.1H346l-0.7-8.5c-2.4,5.3-7.7,9.4-15.2,9.4C322.7,57.3,319,53.7,319,48.2z M345.2,40.2v-2.5c-1.6,1.3-4.4,2-8.2,2.6
			c-5.2,0.8-7.4,1.4-9.4,2.6c-1.7,1.1-2.6,2.6-2.6,4.6c0,3.2,2.1,5.2,6.8,5.2C339.6,52.7,345.2,45.9,345.2,40.2z M357.5,21.8h4.8
			l0.7,8c1.9-5.1,6.3-8.8,12.8-8.8c9.2,0,15.2,6.7,15.2,18v0.8c0,11-6.2,17.5-15.4,17.5c-6.2,0-10.4-3.2-12.5-8v19h-5.6V21.8z
			 M385.2,39.6V39c0-8.2-4.5-13-11-13c-6.8,0-11.3,5.4-11.3,12.8v0.4c0,7.6,4.2,13,11,13C381,52.2,385.2,47.4,385.2,39.6z
			 M396.4,39.8V39c0-10.9,6.6-18.1,17.3-18.1c11.5,0,16.6,8.1,16.6,17.3V41H402c0.4,7.1,4.8,11.2,11.8,11.2c5,0,8.4-2.1,9.7-6.1h6.3
			c-2,7.1-7.8,11.1-16.3,11.1C402,57.3,396.4,50.4,396.4,39.8z M402.1,36.5h22.3c-0.5-6.5-4.1-10.7-10.7-10.7
			C407.1,25.8,402.8,29.8,402.1,36.5z M435.7,21.8h4.7l0.8,8.7c1.5-5.6,5.3-8.7,12.4-8.7h2.1v5.9h-2.9c-8.8,0-11.4,3.9-11.4,12.6
			v16.1h-5.7V21.8z"/>
	</g>
</g>
</svg>
